<mxfile host="app.diagrams.net" modified="2024-03-19T08:30:06.273Z" agent="Mozilla/5.0 (Macintosh; Intel Mac OS X 10_15_7) AppleWebKit/537.36 (KHTML, like Gecko) Chrome/122.0.0.0 Safari/537.36" etag="P1BmMMKGnlqvM4OpK44q" version="24.0.7" type="github">
  <diagram name="第 1 页" id="zQ3N-RfsQXxtyMJgw5pa">
    <mxGraphModel dx="2074" dy="1146" grid="1" gridSize="10" guides="1" tooltips="1" connect="1" arrows="1" fold="1" page="1" pageScale="1" pageWidth="827" pageHeight="1169" math="0" shadow="0">
      <root>
        <mxCell id="0" />
        <mxCell id="1" parent="0" />
        <mxCell id="fbW0gLVg6tUTPNa1Lv4N-1" value="系统管理员" style="shape=umlActor;verticalLabelPosition=bottom;verticalAlign=top;html=1;fontSize=14;" parent="1" vertex="1">
          <mxGeometry x="270" y="780" width="30" height="60" as="geometry" />
        </mxCell>
        <mxCell id="fbW0gLVg6tUTPNa1Lv4N-2" value="新增模版" style="ellipse;whiteSpace=wrap;html=1;fontSize=14;" parent="1" vertex="1">
          <mxGeometry x="430" y="620" width="100" height="60" as="geometry" />
        </mxCell>
        <mxCell id="fbW0gLVg6tUTPNa1Lv4N-3" value="编辑模版" style="ellipse;whiteSpace=wrap;html=1;fontSize=14;" parent="1" vertex="1">
          <mxGeometry x="430" y="710" width="100" height="60" as="geometry" />
        </mxCell>
        <mxCell id="fbW0gLVg6tUTPNa1Lv4N-4" value="删除模版" style="ellipse;whiteSpace=wrap;html=1;fontSize=14;" parent="1" vertex="1">
          <mxGeometry x="430" y="800" width="100" height="60" as="geometry" />
        </mxCell>
        <mxCell id="fbW0gLVg6tUTPNa1Lv4N-5" value="上架/下架模版" style="ellipse;whiteSpace=wrap;html=1;fontSize=14;" parent="1" vertex="1">
          <mxGeometry x="430" y="890" width="100" height="60" as="geometry" />
        </mxCell>
        <mxCell id="fbW0gLVg6tUTPNa1Lv4N-6" value="" style="endArrow=classic;html=1;rounded=0;exitX=1;exitY=0.3333333333333333;exitDx=0;exitDy=0;exitPerimeter=0;entryX=0;entryY=1;entryDx=0;entryDy=0;fontSize=14;" parent="1" source="fbW0gLVg6tUTPNa1Lv4N-1" target="fbW0gLVg6tUTPNa1Lv4N-2" edge="1">
          <mxGeometry width="50" height="50" relative="1" as="geometry">
            <mxPoint x="510" y="890" as="sourcePoint" />
            <mxPoint x="560" y="840" as="targetPoint" />
          </mxGeometry>
        </mxCell>
        <mxCell id="fbW0gLVg6tUTPNa1Lv4N-7" value="" style="endArrow=classic;html=1;rounded=0;exitX=0.933;exitY=0.883;exitDx=0;exitDy=0;exitPerimeter=0;entryX=0;entryY=0.5;entryDx=0;entryDy=0;fontSize=14;" parent="1" source="fbW0gLVg6tUTPNa1Lv4N-1" target="fbW0gLVg6tUTPNa1Lv4N-5" edge="1">
          <mxGeometry width="50" height="50" relative="1" as="geometry">
            <mxPoint x="510" y="890" as="sourcePoint" />
            <mxPoint x="560" y="840" as="targetPoint" />
          </mxGeometry>
        </mxCell>
        <mxCell id="fbW0gLVg6tUTPNa1Lv4N-8" value="" style="endArrow=classic;html=1;rounded=0;fontSize=14;" parent="1" source="fbW0gLVg6tUTPNa1Lv4N-1" edge="1">
          <mxGeometry width="50" height="50" relative="1" as="geometry">
            <mxPoint x="510" y="890" as="sourcePoint" />
            <mxPoint x="430" y="830" as="targetPoint" />
          </mxGeometry>
        </mxCell>
        <mxCell id="fbW0gLVg6tUTPNa1Lv4N-9" value="" style="endArrow=classic;html=1;rounded=0;fontSize=14;" parent="1" target="fbW0gLVg6tUTPNa1Lv4N-3" edge="1">
          <mxGeometry width="50" height="50" relative="1" as="geometry">
            <mxPoint x="300" y="800" as="sourcePoint" />
            <mxPoint x="560" y="840" as="targetPoint" />
          </mxGeometry>
        </mxCell>
      </root>
    </mxGraphModel>
  </diagram>
</mxfile>
